<svg width="27" height="27" viewBox="0 0 27 27" fill="none" xmlns="http://www.w3.org/2000/svg">
<path d="M22.5525 18.0024V20.7378C22.5525 22.8496 20.8347 24.5674 18.7229 24.5674H7.78124C5.6695 24.5674 3.95166 22.8496 3.95166 20.7378V20.0266C3.95166 18.3088 5.35219 16.9082 7.07004 16.9082H21.4583C22.0601 16.9082 22.5525 17.4006 22.5525 18.0024Z" fill="#8652FD"/>
<path d="M17.0817 2.68405H9.42249C5.04583 2.68405 3.95166 3.77822 3.95166 8.15489V16.4487C4.78323 15.7156 5.87739 15.267 7.07004 15.267H21.4583C22.0601 15.267 22.5525 14.7746 22.5525 14.1728V8.15489C22.5525 3.77822 21.4583 2.68405 17.0817 2.68405ZM14.3462 12.258H8.87541C8.4268 12.258 8.05479 11.886 8.05479 11.4374C8.05479 10.9888 8.4268 10.6168 8.87541 10.6168H14.3462C14.7949 10.6168 15.1669 10.9888 15.1669 11.4374C15.1669 11.886 14.7949 12.258 14.3462 12.258ZM17.6287 8.42843H8.87541C8.4268 8.42843 8.05479 8.05641 8.05479 7.6078C8.05479 7.15919 8.4268 6.78718 8.87541 6.78718H17.6287C18.0774 6.78718 18.4494 7.15919 18.4494 7.6078C18.4494 8.05641 18.0774 8.42843 17.6287 8.42843Z" fill="#8652FD"/>
</svg>
