<svg width="27" height="27" viewBox="0 0 27 27" fill="none" xmlns="http://www.w3.org/2000/svg">
<path d="M22.3009 7.95793L15.9985 3.54844C14.2806 2.34486 11.6437 2.41051 9.99148 3.69068L4.50971 7.96888C3.41554 8.82233 2.55115 10.573 2.55115 11.9516V19.5014C2.55115 22.2915 4.81607 24.5674 7.6062 24.5674H19.4013C22.1914 24.5674 24.4564 22.3025 24.4564 19.5123V12.0939C24.4564 10.6168 23.5044 8.80044 22.3009 7.95793ZM14.3244 20.1907C14.3244 20.6393 13.9524 21.0113 13.5038 21.0113C13.0551 21.0113 12.6831 20.6393 12.6831 20.1907V16.9082C12.6831 16.4596 13.0551 16.0876 13.5038 16.0876C13.9524 16.0876 14.3244 16.4596 14.3244 16.9082V20.1907Z" fill="#8652FD"/>
</svg>
