<svg width="27" height="27" viewBox="0 0 27 27" fill="none" xmlns="http://www.w3.org/2000/svg">
<path d="M13.7481 13.626C16.7695 13.626 19.2189 11.1766 19.2189 8.15513C19.2189 5.13367 16.7695 2.6843 13.7481 2.6843C10.7266 2.6843 8.27722 5.13367 8.27722 8.15513C8.27722 11.1766 10.7266 13.626 13.7481 13.626Z" stroke="#484C52" stroke-width="1.5" stroke-linecap="round" stroke-linejoin="round"/>
<path d="M4.34924 24.5676C4.34924 20.3332 8.56178 16.9085 13.7481 16.9085C14.7985 16.9085 15.8161 17.0507 16.768 17.3133" stroke="#484C52" stroke-width="1.5" stroke-linecap="round" stroke-linejoin="round"/>
<path d="M24.6897 20.191C24.6897 20.5411 24.646 20.8803 24.5584 21.2085C24.46 21.6462 24.2849 22.0729 24.0551 22.4449C23.3002 23.7142 21.9106 24.5676 20.3131 24.5676C19.1861 24.5676 18.1685 24.1409 17.4026 23.4406C17.0743 23.1561 16.7898 22.817 16.571 22.4449C16.1662 21.7884 15.9364 21.0116 15.9364 20.191C15.9364 19.0093 16.4069 17.9261 17.1728 17.1383C17.9716 16.3176 19.0876 15.8143 20.3131 15.8143C21.6042 15.8143 22.7749 16.3723 23.5627 17.2696C24.263 18.0464 24.6897 19.0749 24.6897 20.191Z" stroke="#484C52" stroke-width="1.5" stroke-miterlimit="10" stroke-linecap="round" stroke-linejoin="round"/>
<path d="M21.9433 20.169H18.6827" stroke="#484C52" stroke-width="1.5" stroke-miterlimit="10" stroke-linecap="round" stroke-linejoin="round"/>
<path d="M20.313 18.5716V21.8431" stroke="#484C52" stroke-width="1.5" stroke-miterlimit="10" stroke-linecap="round" stroke-linejoin="round"/>
</svg>
