<svg width="27" height="27" viewBox="0 0 27 27" fill="none" xmlns="http://www.w3.org/2000/svg">
<path d="M13.7481 2.68405C10.8814 2.68405 8.55078 5.01463 8.55078 7.88134C8.55078 10.6934 10.7501 12.9692 13.6168 13.0677C13.7043 13.0568 13.7918 13.0568 13.8575 13.0677C13.8794 13.0677 13.8903 13.0677 13.9122 13.0677C13.9231 13.0677 13.9231 13.0677 13.9341 13.0677C16.7351 12.9692 18.9344 10.6934 18.9454 7.88134C18.9454 5.01463 16.6148 2.68405 13.7481 2.68405Z" fill="#8652FD"/>
<path d="M19.3065 15.9782C16.2537 13.9431 11.2753 13.9431 8.20067 15.9782C6.81108 16.9082 6.04517 18.1665 6.04517 19.5124C6.04517 20.8582 6.81108 22.1055 8.18973 23.0246C9.72157 24.0532 11.7348 24.5674 13.7481 24.5674C15.7614 24.5674 17.7746 24.0532 19.3065 23.0246C20.6851 22.0946 21.451 20.8472 21.451 19.4905C21.4401 18.1447 20.6851 16.8973 19.3065 15.9782ZM15.9364 20.333H14.5687V21.7007C14.5687 22.1493 14.1967 22.5213 13.7481 22.5213C13.2995 22.5213 12.9275 22.1493 12.9275 21.7007V20.333H11.5598C11.1112 20.333 10.7391 19.961 10.7391 19.5124C10.7391 19.0638 11.1112 18.6917 11.5598 18.6917H12.9275V17.324C12.9275 16.8754 13.2995 16.5034 13.7481 16.5034C14.1967 16.5034 14.5687 16.8754 14.5687 17.324V18.6917H15.9364C16.385 18.6917 16.7571 19.0638 16.7571 19.5124C16.7571 19.961 16.385 20.333 15.9364 20.333Z" fill="#8652FD"/>
</svg>
