<svg width="25" height="25" viewBox="0 0 25 25" fill="none" xmlns="http://www.w3.org/2000/svg">
<path d="M12.4961 2.62573C9.87609 2.62573 7.74609 4.75573 7.74609 7.37573C7.74609 9.94573 9.75609 12.0257 12.3761 12.1157C12.4561 12.1057 12.5361 12.1057 12.5961 12.1157C12.6161 12.1157 12.6261 12.1157 12.6461 12.1157C12.6561 12.1157 12.6561 12.1157 12.6661 12.1157C15.2261 12.0257 17.2361 9.94573 17.2461 7.37573C17.2461 4.75573 15.1161 2.62573 12.4961 2.62573Z" fill="#8652FD"/>
<path d="M17.5761 14.7757C14.7861 12.9157 10.2361 12.9157 7.42605 14.7757C6.15605 15.6257 5.45605 16.7757 5.45605 18.0057C5.45605 19.2357 6.15605 20.3757 7.41605 21.2157C8.81605 22.1557 10.6561 22.6257 12.4961 22.6257C14.3361 22.6257 16.1761 22.1557 17.5761 21.2157C18.8361 20.3657 19.5361 19.2257 19.5361 17.9857C19.5261 16.7557 18.8361 15.6157 17.5761 14.7757Z" fill="#8652FD"/>
</svg>
