<svg width="28" height="27" viewBox="0 0 28 27" fill="none" xmlns="http://www.w3.org/2000/svg">
<path d="M17.1184 4.81769V8.97552H15.4772V4.81769C15.4772 4.52226 15.2146 4.38002 15.0395 4.38002C14.9848 4.38002 14.9301 4.39096 14.8754 4.41284L6.19864 7.6844C5.61874 7.90324 5.24672 8.45032 5.24672 9.07399V9.80709C4.25103 10.5511 3.60547 11.7438 3.60547 13.0896V9.07399C3.60547 7.77194 4.40421 6.61212 5.61874 6.15257L14.3064 2.87007C14.5471 2.78254 14.7988 2.73877 15.0395 2.73877C16.1337 2.73877 17.1184 3.62504 17.1184 4.81769Z" fill="#8652FD"/>
<path d="M24.3947 16.3611V17.4553C24.3947 17.7507 24.1649 17.9914 23.8585 18.0024H22.2611C21.6811 18.0024 21.1559 17.5757 21.1122 17.0067C21.0794 16.6675 21.2107 16.3502 21.4295 16.1314C21.6264 15.9235 21.9 15.8141 22.1954 15.8141H23.8476C24.1649 15.825 24.3947 16.0657 24.3947 16.3611Z" fill="#8652FD"/>
<path d="M22.1844 14.6652H23.3005C23.9023 14.6652 24.3946 14.1728 24.3946 13.571V13.0896C24.3946 10.8247 22.5455 8.97552 20.2806 8.97552H7.71954C6.78949 8.97552 5.93604 9.28189 5.24672 9.80709C4.25103 10.5511 3.60547 11.7438 3.60547 13.0896V20.4533C3.60547 22.7183 5.45461 24.5674 7.71954 24.5674H20.2806C22.5455 24.5674 24.3946 22.7183 24.3946 20.4533V20.2454C24.3946 19.6436 23.9023 19.1513 23.3005 19.1513H22.3485C21.2981 19.1513 20.2915 18.5057 20.018 17.4881C19.7882 16.6566 20.0617 15.8578 20.6088 15.3217C21.0137 14.9059 21.5717 14.6652 22.1844 14.6652ZM16.1884 14.4464H8.52922C8.08061 14.4464 7.70859 14.0743 7.70859 13.6257C7.70859 13.1771 8.08061 12.8051 8.52922 12.8051H16.1884C16.637 12.8051 17.009 13.1771 17.009 13.6257C17.009 14.0743 16.637 14.4464 16.1884 14.4464Z" fill="#8652FD"/>
</svg>
