<svg width="28" height="27" viewBox="0 0 28 27" fill="none" xmlns="http://www.w3.org/2000/svg">
<path d="M20.6088 15.3217C20.1493 15.7703 19.8867 16.4159 19.9523 17.1052C20.0508 18.2869 21.134 19.1513 22.3157 19.1513H24.3946V20.4533C24.3946 22.7182 22.5455 24.5674 20.2806 24.5674H7.71954C5.45461 24.5674 3.60547 22.7182 3.60547 20.4533V13.0896C3.60547 10.8247 5.45461 8.97552 7.71954 8.97552H20.2806C22.5455 8.97552 24.3946 10.8247 24.3946 13.0896V14.6652H22.1844C21.5717 14.6652 21.0137 14.9059 20.6088 15.3217Z" stroke="#484C52" stroke-width="1.5" stroke-linecap="round" stroke-linejoin="round"/>
<path d="M3.60547 14.0743V9.07404C3.60547 7.77198 4.40421 6.61212 5.61874 6.15257L14.3064 2.87007C15.6632 2.35581 17.1184 3.36248 17.1184 4.81772V8.97554" stroke="#484C52" stroke-width="1.5" stroke-linecap="round" stroke-linejoin="round"/>
<path d="M25.553 15.7814V18.0355C25.553 18.6372 25.0716 19.1296 24.4589 19.1515H22.3143C21.1326 19.1515 20.0494 18.2871 19.9509 17.1054C19.8853 16.4161 20.1479 15.7705 20.6074 15.3219C21.0122 14.9061 21.5703 14.6654 22.183 14.6654H24.4589C25.0716 14.6873 25.553 15.1796 25.553 15.7814Z" stroke="#484C52" stroke-width="1.5" stroke-linecap="round" stroke-linejoin="round"/>
<path d="M8.52917 13.6257H16.1883" stroke="#484C52" stroke-width="1.5" stroke-linecap="round" stroke-linejoin="round"/>
</svg>
