<svg width="63" height="30" viewBox="0 0 63 30" fill="none" xmlns="http://www.w3.org/2000/svg">
<path d="M61.5639 13.8837C61.477 12.8358 61.3795 11.6499 61.1892 10.6266C61.057 9.91092 60.7664 8.9579 59.7837 8.9579C59.6853 8.9579 59.5867 8.96759 59.4893 8.97766C59.4286 8.98344 59.3678 8.99164 59.2682 8.9935C59.2662 8.9935 59.2343 8.96256 59.1939 8.84492C58.9053 8.01848 57.6948 6.99052 56.1426 5.73325C55.7602 5.42471 55.3025 5.05316 55.1075 4.86151C55.1791 4.36636 55.1685 3.75823 54.8238 3.33914C54.6637 3.14358 54.3624 2.90998 53.843 2.90998C53.7668 2.90998 53.6857 2.91464 53.5052 2.93068C53.1305 2.93068 52.3795 2.77669 51.3398 2.56174C48.659 2.01159 43.6691 0.986419 36.1868 0.825159C25.2923 0.609461 16.7313 8.47132 16.3784 8.80241L16.126 9.03694C15.6786 9.2532 14.2656 9.77016 9.94684 10.6192C3.82119 11.8253 2.65266 13.7769 2.43193 14.5315C1.94293 14.8966 1.15098 15.7672 1.02551 16.7914C0.924655 17.6082 0.696281 17.9422 0.696281 17.9413L0.590576 18.0776V23.8427L0.602508 23.9478C0.934536 25.4788 2.52123 26.2888 5.19087 26.2888C6.04229 26.2888 6.68099 26.2019 6.6562 26.2019C6.6933 26.1999 7.02253 26.1943 7.593 26.1825C7.53465 26.0213 7.48152 25.8582 7.43565 25.6911C7.39128 25.53 7.35064 25.3679 7.31932 25.2017C7.24401 24.8106 7.20169 24.4081 7.20169 23.995C7.20169 20.4521 10.0841 17.5696 13.6269 17.5696C17.1698 17.5696 20.0524 20.4521 20.0524 23.995C20.0524 24.3155 20.021 24.6262 19.9761 24.9342C19.9515 25.1013 19.923 25.2672 19.8853 25.4294C19.8467 25.5973 19.8063 25.7635 19.755 25.9266C27.7785 25.7547 37.988 25.5278 45.8952 25.3291C45.8603 25.1669 45.8382 25.0026 45.816 24.8365C45.7938 24.6725 45.7811 24.5084 45.7725 24.3425C45.7668 24.2265 45.7552 24.1128 45.7552 23.995C45.7552 20.4521 48.6377 17.5696 52.1804 17.5696C55.6732 17.5696 58.519 20.3729 58.5982 23.8483C58.5982 23.8966 58.6059 23.9456 58.6059 23.995C58.6059 24.1195 58.5943 24.2411 58.5865 24.3647C58.5768 24.5403 58.5594 24.715 58.5363 24.8869C60.046 24.6378 61.1814 23.8423 61.8387 22.5556C62.9632 20.3555 62.39 17.3766 61.9864 16.7441C61.7684 16.4018 61.6603 15.0638 61.5639 13.8837Z" fill="#242E42"/>
<path d="M8.64028 26.1594C9.47772 28.0843 11.3934 29.4309 13.6263 29.4309C15.9393 29.4309 17.9095 27.9838 18.6953 25.9489C18.7575 25.7867 18.8131 25.6206 18.8605 25.4508C18.9058 25.2886 18.9434 25.1225 18.9744 24.9545C19.0294 24.6428 19.064 24.3222 19.064 23.9942C19.064 20.9911 16.6304 18.5573 13.6272 18.5573C10.6241 18.5573 8.19043 20.9911 8.19043 23.9942C8.19043 24.4016 8.23871 24.7981 8.3241 25.1805C8.36027 25.3466 8.4037 25.5097 8.45628 25.6689C8.50997 25.8371 8.5713 25.9991 8.64028 26.1594Z" fill="#242E42"/>
<path d="M46.9062 25.3023C47.4931 27.6712 49.6287 29.4309 52.179 29.4309C54.8453 29.4309 57.0589 27.509 57.5222 24.9768C57.552 24.8127 57.5751 24.6475 57.5916 24.4786C57.6061 24.3185 57.6158 24.1582 57.6158 23.9941C57.6158 23.9902 57.6158 23.9863 57.6158 23.9814C57.61 20.9852 55.1773 18.5571 52.179 18.5571C49.1768 18.5571 46.7422 20.9909 46.7422 23.9941C46.7422 24.1032 46.7528 24.2093 46.7586 24.3174C46.7683 24.4844 46.7847 24.6483 46.8097 24.8107C46.8348 24.977 46.8677 25.141 46.9062 25.3023Z" fill="#242E42"/>
</svg>
