<svg width="36" height="36" viewBox="0 0 36 36" fill="none" xmlns="http://www.w3.org/2000/svg">
<rect x="0.261719" y="0.832275" width="34.7651" height="34.7651" fill="#FF0000" fill-opacity="0.01"/>
<path fill-rule="evenodd" clip-rule="evenodd" d="M23.0792 30.0818C21.4145 30.7637 19.576 31.1448 17.6438 31.1448C9.96208 31.1448 3.73779 25.1412 3.73779 17.7268C3.73779 10.3192 9.96208 4.30884 17.6438 4.30884C25.3256 4.30884 31.5499 10.3192 31.5365 17.7402C31.5365 20.4078 30.7275 22.8948 29.3303 24.9874C29.2701 25.0609 29.2166 25.1478 29.1631 25.2348C29.0027 25.5222 28.9024 25.8565 28.9024 26.2109L30.3799 32.1209L24.764 30.0551C24.5166 29.9481 24.2425 29.8946 23.955 29.8946C23.6943 29.8946 23.4402 29.9414 23.2062 30.0283C23.2062 30.035 23.1996 30.035 23.1929 30.035C23.1528 30.0484 23.1193 30.0618 23.0792 30.0818ZM26.2014 18.2147C26.2014 17.0314 25.2454 16.0754 24.062 16.0754C22.8787 16.0754 21.9226 17.0314 21.9226 18.2147C21.9226 19.3981 22.8787 20.3541 24.062 20.3541C25.2454 20.3541 26.2014 19.3981 26.2014 18.2147ZM17.6442 16.0754C18.8275 16.0754 19.7836 17.0314 19.7836 18.2147C19.7836 19.3981 18.8275 20.3541 17.6442 20.3541C16.4608 20.3541 15.5048 19.3981 15.5048 18.2147C15.5048 17.0314 16.4608 16.0754 17.6442 16.0754ZM13.3652 18.2147C13.3652 17.0314 12.4091 16.0754 11.2258 16.0754C10.0424 16.0754 9.08637 17.0314 9.08637 18.2147C9.08637 19.3981 10.0424 20.3541 11.2258 20.3541C12.4091 20.3541 13.3652 19.3981 13.3652 18.2147Z" fill="black"/>
<mask id="mask0_1959_2700" style="mask-type:luminance" maskUnits="userSpaceOnUse" x="3" y="4" width="29" height="29">
<path fill-rule="evenodd" clip-rule="evenodd" d="M23.0792 30.0818C21.4145 30.7637 19.576 31.1448 17.6438 31.1448C9.96208 31.1448 3.73779 25.1412 3.73779 17.7268C3.73779 10.3192 9.96208 4.30884 17.6438 4.30884C25.3256 4.30884 31.5499 10.3192 31.5365 17.7402C31.5365 20.4078 30.7275 22.8948 29.3303 24.9874C29.2701 25.0609 29.2166 25.1478 29.1631 25.2348C29.0027 25.5222 28.9024 25.8565 28.9024 26.2109L30.3799 32.1209L24.764 30.0551C24.5166 29.9481 24.2425 29.8946 23.955 29.8946C23.6943 29.8946 23.4402 29.9414 23.2062 30.0283C23.2062 30.035 23.1996 30.035 23.1929 30.035C23.1528 30.0484 23.1193 30.0618 23.0792 30.0818ZM26.2014 18.2147C26.2014 17.0314 25.2454 16.0754 24.062 16.0754C22.8787 16.0754 21.9226 17.0314 21.9226 18.2147C21.9226 19.3981 22.8787 20.3541 24.062 20.3541C25.2454 20.3541 26.2014 19.3981 26.2014 18.2147ZM17.6442 16.0754C18.8275 16.0754 19.7836 17.0314 19.7836 18.2147C19.7836 19.3981 18.8275 20.3541 17.6442 20.3541C16.4608 20.3541 15.5048 19.3981 15.5048 18.2147C15.5048 17.0314 16.4608 16.0754 17.6442 16.0754ZM13.3652 18.2147C13.3652 17.0314 12.4091 16.0754 11.2258 16.0754C10.0424 16.0754 9.08637 17.0314 9.08637 18.2147C9.08637 19.3981 10.0424 20.3541 11.2258 20.3541C12.4091 20.3541 13.3652 19.3981 13.3652 18.2147Z" fill="white"/>
</mask>
<g mask="url(#mask0_1959_2700)">
<rect x="0.261719" y="0.832275" width="34.7651" height="34.7651" fill="white"/>
</g>
</svg>
