<svg width="51" height="36" viewBox="0 0 51 36" fill="none" xmlns="http://www.w3.org/2000/svg">
<path fill-rule="evenodd" clip-rule="evenodd" d="M42.613 35.5701C38.1681 35.5701 34.5659 31.9672 34.5659 27.5232C34.5659 27.2442 34.58 26.9692 34.6081 26.6975L31.3658 26.1282C31.3658 26.1282 31.256 25.9819 30.4568 26.7827C30.115 27.1245 29.6499 27.1678 29.2257 27.1124C28.4715 27.3673 26.7656 27.8579 24.7954 27.8579C23.2668 27.8579 21.5831 27.5603 20.078 26.6228C17.7831 25.1916 16.4258 22.5864 16.015 18.9013C15.0043 17.7869 13.9518 16.9173 12.9203 16.2403L12.0341 18.8796C14.817 20.1459 16.7555 22.945 16.7555 26.2012C16.7555 30.6453 13.1518 34.2475 8.70861 34.2475C4.26529 34.2475 0.661564 30.6445 0.661564 26.2012C0.661564 21.7565 4.26529 18.1548 8.70861 18.1548C9.31483 18.1548 9.90411 18.2271 10.4726 18.3546L11.4664 15.3933C8.36591 13.8133 5.79945 13.837 5.79945 13.837L4.8361 14.3642L1.6361 14.6187C3.56343 12.3827 11.164 12.7818 11.164 12.7818L9.54464 12.5093C9.54464 12.5093 9.59945 10.7636 10.5996 8.61795C11.5998 6.47245 12.6909 5.21764 12.6909 5.21764C12.7908 5.33022 12.8558 5.46298 12.9074 5.6004C12.8897 4.12338 12.8704 2.64637 12.7569 1.17168C12.7559 1.1597 12.758 1.14989 12.7601 1.14006V1.14005L12.7601 1.13997C12.7616 1.13301 12.763 1.12603 12.7634 1.11826C12.7272 0.966708 12.7754 0.803509 12.9605 0.712981C13.5571 0.421521 14.144 0.175558 14.8153 0.142484C14.9979 0.133633 15.1651 0.275093 15.2117 0.444813C15.424 1.21189 15.4802 2.01562 15.3887 2.80351L15.4175 2.74524L15.4175 2.74515L15.4176 2.74505C15.4737 2.63114 15.5296 2.51765 15.5914 2.40506C15.7032 2.20413 15.897 2.17338 16.0642 2.2355C16.2524 2.2032 16.4662 2.27571 16.5498 2.50397C16.6003 2.642 16.6732 2.76312 16.7453 2.88305C16.8657 3.08342 16.9842 3.28048 16.9937 3.54761C17.0176 4.21904 16.2378 4.65522 15.7442 4.9237C15.6507 4.97478 15.5575 4.97727 15.4692 4.96065C15.2265 5.94357 15.1459 6.95879 15.2055 8.00118C16.7075 8.97525 16.1285 9.86376 16.1285 9.86376L16.4012 10.3273C16.4012 10.3273 17.8203 8.3091 22.4564 11.3094C26.625 14.0071 30.0002 12.7356 32.8591 11.6586L32.8592 11.6586L32.8593 11.6585C33.1799 11.5378 33.4941 11.4194 33.8021 11.3094C36.8566 10.2183 48.0939 9.94621 48.0939 9.94621C42.5659 10.7824 40.1296 15.328 40.1296 15.328L44.4932 12.6374C46.4209 12.8195 45.912 14.8557 45.912 14.8557L37.8751 19.7648C36.3116 19.1827 34.5297 20.9284 34.5297 20.9284L32.8569 23.8745L35.1488 24.5273C36.3389 21.5692 39.2285 19.4785 42.6128 19.4785C47.0574 19.4785 50.6595 23.0816 50.6595 27.5248C50.6595 31.9679 47.0566 35.5701 42.613 35.5701ZM8.70955 20.6235C5.63393 20.6235 3.13346 23.1249 3.13346 26.2004C3.13346 29.2752 5.63408 31.7765 8.70955 31.7765C11.785 31.7765 14.2856 29.2752 14.2856 26.2004C14.2856 24.0383 13.0473 22.1633 11.2431 21.2386L9.49029 26.4617C9.37445 26.806 9.05365 27.0238 8.70955 27.0238C8.62352 27.0238 8.53501 27.0093 8.44821 26.9813C8.01731 26.8357 7.78486 26.3695 7.92865 25.9375L9.68159 20.7136C9.3656 20.6582 9.04153 20.6235 8.70955 20.6235ZM13.6971 3.65304C13.9277 3.8546 14.1699 4.0459 14.4207 4.24171C14.5364 4.33068 14.6636 4.35863 14.7802 4.34124C14.4723 5.37696 14.338 6.45165 14.3597 7.55149C14.1779 7.46981 13.98 7.38829 13.7614 7.30786C13.7503 6.78455 13.7428 6.26122 13.7354 5.73794C13.7254 5.04281 13.7155 4.34777 13.6971 3.65304ZM23.1833 17.1091C19.3481 15.9589 18.0471 17.6905 17.6386 18.6159C17.9771 21.8274 19.081 24.0561 20.9432 25.2212C23.3859 26.7481 26.5861 26.1515 28.1226 25.7245C27.9538 23.4692 27.1361 18.295 23.1833 17.1091ZM37.5459 25.2083C38.4279 23.2875 40.364 21.9471 42.613 21.9471C45.6873 21.9471 48.1895 24.4484 48.1904 27.5232C48.1904 30.5987 45.689 33.1001 42.6139 33.1001C39.5383 33.1001 37.0369 30.5987 37.0369 27.5232C37.0369 27.4054 37.0452 27.2898 37.0536 27.1741C37.0547 27.1589 37.0558 27.1436 37.0569 27.1284L43.3667 28.2372L43.585 26.9282L37.5459 25.2083Z" fill="#242E42"/>
<path d="M18.6372 20.0366H25.8929L27.0934 25.1649C19.783 26.5278 18.6372 20.0366 18.6372 20.0366Z" fill="#242E42"/>
</svg>
