<?xml version="1.0" standalone="no"?>
<!DOCTYPE svg PUBLIC "-//W3C//DTD SVG 20010904//EN"
 "http://www.w3.org/TR/2001/REC-SVG-20010904/DTD/svg10.dtd">
<svg version="1.0" xmlns="http://www.w3.org/2000/svg"
 width="50.000000pt" height="36.000000pt" viewBox="0 0 50.000000 36.000000"
 preserveAspectRatio="xMidYMid meet">
<metadata>
Created by potrace 1.10, written by Peter Selinger 2001-2011
</metadata>
<g transform="translate(0.000000,36.000000) scale(0.100000,-0.100000)"
fill="#000000" stroke="none">
<path d="M103 328 c17 -12 17 -16 -1 -68 -14 -41 -24 -56 -40 -58 -26 -4 -27
-20 -8 -67 14 -33 14 -34 -11 -37 -15 -2 -29 -9 -31 -17 -3 -8 0 -11 5 -8 5 3
9 -7 8 -21 0 -35 43 -46 52 -13 5 20 12 21 138 21 124 0 133 1 138 20 3 11 17
25 31 31 20 10 30 9 51 -5 14 -9 25 -23 25 -32 0 -9 6 -14 13 -11 6 2 12 9 11
15 -1 7 -2 30 -2 52 -1 22 -6 40 -12 40 -5 0 -7 -7 -4 -15 5 -12 -6 -15 -65
-15 -69 0 -71 -1 -71 -25 0 -23 -4 -25 -40 -25 l-41 0 3 113 3 112 53 3 52 3
0 -70 0 -71 60 0 61 0 -3 78 -3 77 -195 3 c-160 2 -191 0 -177 -10z m132 -30
c2 -13 4 -63 2 -113 l-2 -90 -43 -3 c-41 -3 -43 -2 -58 34 -12 28 -14 53 -9
93 11 90 18 101 65 101 33 0 40 -4 45 -22z m211 -22 c9 -38 -4 -66 -32 -66
-22 0 -24 4 -24 45 0 41 2 45 25 45 18 0 26 -7 31 -24z"/>
<path d="M148 270 c-3 -16 0 -34 6 -40 6 -6 4 -16 -7 -28 -15 -17 -16 -23 -4
-58 16 -46 54 -64 43 -20 -3 14 -9 37 -12 51 -5 22 -3 25 20 25 25 0 26 3 26
50 l0 50 -34 0 c-30 0 -34 -3 -38 -30z"/>
<path d="M198 130 c2 -16 8 -30 13 -30 5 0 9 14 9 30 0 18 -5 30 -13 30 -9 0
-12 -10 -9 -30z"/>
<path d="M65 268 c-18 -61 -18 -58 -5 -58 11 0 28 38 37 83 10 49 -16 29 -32
-25z"/>
<path d="M260 200 c0 -60 4 -100 10 -100 6 0 10 23 10 50 l0 50 35 0 35 0 0
50 0 50 -45 0 -45 0 0 -100z"/>
<path d="M290 130 c0 -19 5 -30 14 -30 8 0 16 13 18 30 4 24 1 30 -14 30 -13
0 -18 -8 -18 -30z"/>
<path d="M379 69 c-9 -17 -8 -25 4 -37 29 -28 73 12 47 43 -17 21 -37 19 -51
-6z"/>
</g>
</svg>
