<svg width="36" height="36" viewBox="0 0 36 36" fill="none" xmlns="http://www.w3.org/2000/svg">
<path d="M32.9699 17.1157C32.4599 8.41566 24.5549 1.71068 15.4499 3.21068C9.17994 4.24568 4.15495 9.33064 3.17995 15.6006C2.60995 19.2306 3.35998 22.6657 4.99498 25.5007L3.65996 30.4656C3.35996 31.5906 4.39493 32.6107 5.50493 32.2957L10.3949 30.9457C12.6149 32.2507 15.2099 33.0007 17.9849 33.0007C26.4449 33.0007 33.4649 25.5457 32.9699 17.1157ZM25.32 23.5807C25.185 23.8507 25.0199 24.1057 24.8099 24.3457C24.4349 24.7507 24.0299 25.0507 23.5799 25.2307C23.1299 25.4257 22.6349 25.5157 22.1099 25.5157C21.3449 25.5157 20.5199 25.3357 19.6649 24.9607C18.7949 24.5857 17.94 24.0906 17.085 23.4756C16.215 22.8456 15.405 22.1407 14.625 21.3757C13.845 20.5957 13.1549 19.7706 12.5249 18.9156C11.9099 18.0606 11.415 17.2056 11.055 16.3506C10.695 15.4956 10.515 14.6707 10.515 13.8907C10.515 13.3807 10.605 12.8857 10.785 12.4357C10.965 11.9707 11.25 11.5507 11.655 11.1757C12.135 10.6957 12.66 10.4707 13.215 10.4707C13.425 10.4707 13.6349 10.5157 13.8299 10.6057C14.0249 10.6957 14.205 10.8307 14.34 11.0257L16.0799 13.4856C16.2149 13.6806 16.3199 13.8456 16.3799 14.0106C16.4549 14.1756 16.4849 14.3256 16.4849 14.4756C16.4849 14.6556 16.425 14.8357 16.32 15.0157C16.215 15.1957 16.0799 15.3756 15.8999 15.5556L15.3299 16.1556C15.2399 16.2456 15.21 16.3357 15.21 16.4557C15.21 16.5157 15.2249 16.5756 15.2399 16.6356C15.2699 16.6956 15.285 16.7407 15.3 16.7857C15.435 17.0407 15.6749 17.3556 16.0049 17.7456C16.3499 18.1356 16.71 18.5406 17.1 18.9306C17.505 19.3356 17.895 19.6956 18.3 20.0406C18.69 20.3706 19.0199 20.5957 19.2749 20.7307C19.3199 20.7457 19.365 20.7756 19.41 20.7906C19.47 20.8206 19.53 20.8207 19.605 20.8207C19.74 20.8207 19.83 20.7757 19.92 20.6857L20.4899 20.1157C20.6849 19.9207 20.865 19.7857 21.03 19.6957C21.21 19.5907 21.375 19.5306 21.57 19.5306C21.72 19.5306 21.87 19.5606 22.035 19.6356C22.2 19.7106 22.3799 19.8007 22.5599 19.9357L25.05 21.7057C25.245 21.8407 25.3799 22.0057 25.4699 22.1857C25.5449 22.3807 25.59 22.5606 25.59 22.7706C25.5 23.0256 25.44 23.3107 25.32 23.5807Z" fill="#F06539"/>
</svg>
